<svg version="1.1" xmlns="http://www.w3.org/2000/svg" viewBox="0 0 22.593868673741802 318.1261052079303" width="22.593868673741802" height="318.1261052079303"><!-- svg-source:excalidraw --><metadata></metadata><defs><style class="style-fonts">
      </style></defs><rect x="0" y="0" width="22.593868673741802" height="318.1261052079303" fill="transparent"></rect><g stroke-linecap="round"><g transform="translate(10.82587800438516 11.237149675982067) rotate(0 -7.993605777301127e-15 148.14278095808302)"><path d="M0.42 -0.13 C0.39 49.49, -0.55 247.47, -0.62 296.89 M-0.83 -1.24 C-0.41 48.1, 1.75 245.25, 1.77 295.08" stroke="#787878" stroke-width="2" fill="none"></path></g><g transform="translate(10.82587800438516 11.237149675982067) rotate(0 -7.993605777301127e-15 148.14278095808302)"><path d="M-6.93 271.65 C-5.05 276.66, -1.57 283.8, 1.77 295.08 M-6.93 271.65 C-3.96 278.11, -0.94 285.08, 1.77 295.08" stroke="#787878" stroke-width="2" fill="none"></path></g><g transform="translate(10.82587800438516 11.237149675982067) rotate(0 -7.993605777301127e-15 148.14278095808302)"><path d="M10.17 271.54 C7.62 276.64, 6.65 283.81, 1.77 295.08 M10.17 271.54 C7.86 278.16, 5.61 285.16, 1.77 295.08" stroke="#787878" stroke-width="2" fill="none"></path></g></g><mask></mask></svg>
